:SAMPLES-PER-SECOND 30
:FRAME-RANGE 1-564
:FULLY-SPECIFIED
:DEGREES
212
root  28.3319 39.0357 50.3064 166.754 10.0935 -175.073
RightUpLeg  32.3573 0.19886 7.1508
RightLeg  -3.6774 11.6501 -6.34202
RightFoot  -14.2455 -0.0207467 2.98911
RightToes  -1.74624e-010 0 -3.6325e-017
Spine  16.4235 -0.921337 14.4303
Spine1  -1.57535 2.26406 -11.0504
HEad  2.04507 24.5563 -9.7523
LeftShoulder1  2.97928 -3.7437 -35.0705
LeftArm  4.61553 14.2938 -17.5884
LeftForeArm  -33.666 -59.591 -22.1412
LeftHand  0.102118 -1.4477 -1.60812
RightShoulder  5.07304 4.25673 56.9777
RightArm  8.70725 1.08837 -4.52588
RightForeArm  0.664755 66.3387 27.3566
RightHand  3.73287 17.8643 17.8571
LeftUpLeg  -8.31403 5.16558 5.89604
LeftLeg  -2.54857 8.04648 1.95518
LeftFoot  -9.92904 0.0752811 -1.27229
LeftToes  -6.43926e-010 8.38805e-011 -3.16407e-011
213
root  28.2073 38.7833 48.8356 166.308 9.16716 -174.366
RightUpLeg  34.185 0.254093 7.96461
RightLeg  -1.27959 10.913 -6.17406
RightFoot  -15.3096 0.0399523 4.14737
RightToes  -1.74624e-010 0 -3.6325e-017
Spine  16.0361 -0.570558 15.1083
Spine1  -0.950766 2.70674 -11.0794
HEad  1.16802 23.5577 -9.35884
LeftShoulder1  2.97203 -3.7582 -34.892
LeftArm  3.21054 12.7033 -19.4038
LeftForeArm  -33.0911 -58.8408 -21.4376
LeftHand  0.0754737 -1.46909 -1.14798
RightShoulder  5.44201 4.78753 57.1856
RightArm  7.90689 1.71962 -4.70389
RightForeArm  -1.77993 65.3234 26.1533
RightHand  3.55048 17.7487 17.0624
LeftUpLeg  -9.63712 6.53743 6.24198
LeftLeg  2.1674 8.39889 1.30655
LeftFoot  -7.51824 0.0119654 0.996667
LeftToes  -6.43926e-010 8.38805e-011 -3.16407e-011
214
root  28.1471 38.6847 47.2767 165.867 10.5992 -174.514
RightUpLeg  35.822 2.94091 9.10063
RightLeg  1.58188 10.2043 -6.20365
RightFoot  -15.134 0.0893923 5.79696
RightToes  -1.74624e-010 0 -3.6325e-017
Spine  15.9374 0.991021 15.1464
Spine1  -0.391596 4.28295 -12.2195
HEad  1.86506 23.3002 -7.54819
LeftShoulder1  2.87794 -3.63163 -34.3073
LeftArm  1.99364 12.6556 -21.0147
LeftForeArm  -30.2128 -58.7786 -21.2359
LeftHand  0.06974 -3.25558 -0.700506
RightShoulder  5.92882 5.45212 57.6336
RightArm  7.73871 2.16277 -4.87728
RightForeArm  -4.27593 63.7864 24.4101
RightHand  3.48168 17.8886 16.6234
LeftUpLeg  -9.7132 8.14016 6.71642
LeftLeg  7.48213 10.4387 1.47956
LeftFoot  -5.58752 -0.198676 4.62161
LeftToes  -6.43926e-010 8.38805e-011 -3.16407e-011
215
root  27.7466 38.5892 45.4754 165.611 8.7235 -175.289
RightUpLeg  36.3784 7.73848 10.1865
RightLeg  6.98478 5.94266 -3.25979
RightFoot  -14.2577 0.112654 8.21892
RightToes  -1.74624e-010 0 -3.6325e-017
Spine  13.3611 0.494439 16.8714
Spine1  1.54798 4.47876 -16.4251
HEad  2.64892 23.3511 -5.02634
LeftShoulder1  2.82156 -3.62176 -33.5798
LeftArm  0.729232 12.6285 -21.4113
LeftForeArm  -30.5497 -59.244 -21.6664
LeftHand  0.0173168 -1.47757 -0.15786
RightShoulder  6.60337 6.12076 59.5371
RightArm  7.35143 3.19068 -5.01934
RightForeArm  -6.37591 61.8622 22.4376
RightHand  3.57004 18.1378 16.8643
LeftUpLeg  -9.12609 5.39859 3.88973
LeftLeg  9.8046 11.0378 3.78064
LeftFoot  0.45549 -0.466767 4.4892
LeftToes  -6.43926e-010 8.38805e-011 -3.16407e-011
216
root  27.4745 38.6073 44.0358 165.377 6.73573 -175.524
RightUpLeg  32.755 11.8188 10.9931
RightLeg  18.3052 3.55834 1.11114
RightFoot  -10.8226 -0.132451 12.8989
RightToes  -1.74624e-010 0 -3.6325e-017
Spine  15.0624 -0.0554016 16.7131
Spine1  -1.42066 4.00746 -17.1217
HEad  3.63814 23.4765 -3.61142
LeftShoulder1  2.86221 -3.7027 -33.6988
LeftArm  -0.148881 11.929 -21.5983
LeftForeArm  -30.6761 -58.2238 -20.7852
LeftHand  0.0310273 -2.08447 -0.307254
RightShoulder  7.35511 7.00972 60.5839
RightArm  7.00472 3.91648 -5.01746
RightForeArm  -8.62687 59.7395 20.5815
RightHand  3.53187 18.0537 16.7434
LeftUpLeg  -8.59653 4.94094 2.5031
LeftLeg  12.2174 9.91834 3.61638
LeftFoot  1.76881 -0.672014 5.74983
LeftToes  -6.43926e-010 8.38805e-011 -3.16407e-011
217
root  27.2284 38.6717 42.6552 165.166 4.73384 -176.101
RightUpLeg  26.3204 8.52648 6.34094
RightLeg  31.4375 8.43838 5.30484
RightFoot  -3.52971 -1.25854 17.9417
RightToes  -1.74624e-010 0 -3.6325e-017
Spine  16.7268 -0.0464408 15.2974
Spine1  -3.97453 3.61187 -16.4949
HEad  5.11805 23.7757 -2.80358
LeftShoulder1  2.85485 -3.65006 -33.8859
LeftArm  -0.597135 11.3521 -21.9698
LeftForeArm  -28.8791 -57.5077 -20.1012
LeftHand  0.0809717 -4.41147 -0.675914
RightShoulder  7.98088 7.94455 60.3918
RightArm  6.82564 4.5581 -4.51127
RightForeArm  -9.95155 57.6982 18.9787
RightHand  3.62367 18.4023 16.924
LeftUpLeg  -7.81854 4.81339 1.08722
LeftLeg  14.4797 8.3936 2.99972
LeftFoot  2.34734 -0.891904 7.30138
LeftToes  -6.43926e-010 8.38805e-011 -3.16407e-011
218
root  27.0065 38.7264 41.3048 164.999 2.7327 -176.993
RightUpLeg  19.0963 7.60755 3.9064
RightLeg  44.638 7.55175 7.62989
RightFoot  6.61585 -3.17089 20.1685
RightToes  -1.74624e-010 0 -3.6325e-017
Spine  17.8192 0.344143 13.8215
Spine1  -5.63868 3.55254 -16.1189
HEad  5.93623 23.9369 -2.86818
LeftShoulder1  2.90315 -3.74892 -34.0073
LeftArm  -1.58583 11.2254 -22.5623
LeftForeArm  -29.2506 -57.7646 -20.329
LeftHand  -0.00651357 -2.63643 0.302106
RightShoulder  8.54984 8.91058 59.7359
RightArm  6.99992 5.47754 -4.20492
RightForeArm  -11.3133 56.0781 17.8762
RightHand  3.67898 18.5017 17.1118
LeftUpLeg  -6.68745 3.41568 -1.06541
LeftLeg  16.2957 7.50253 3.16974
LeftFoot  1.5455 -1.18324 10.363
LeftToes  -6.43926e-010 8.38805e-011 -3.16407e-011
219
root  26.785 38.7988 39.9468 164.863 0.725342 -177.905
RightUpLeg  12.7057 7.92152 2.97619
RightLeg  54.2709 4.88328 6.87823
RightFoot  11.6342 -3.67874 18.3599
RightToes  -1.74624e-010 0 -3.6325e-017
Spine  18.2673 0.933219 12.2136
Spine1  -6.67184 3.60935 -15.2798
HEad  6.89053 24.2835 -3.0027
LeftShoulder1  2.94412 -3.83745 -34.0827
LeftArm  -1.58461 10.4709 -22.9875
LeftForeArm  -29.0586 -57.3668 -19.9985
LeftHand  -0.0432962 -3.0113 0.826098
RightShoulder  9.07367 9.87505 58.9104
RightArm  7.31254 6.30452 -3.84431
RightForeArm  -12.8838 54.5887 16.9779
RightHand  3.68624 18.6195 17.059
LeftUpLeg  -5.07349 2.41316 -3.10129
LeftLeg  17.6253 7.48217 3.52909
LeftFoot  -0.98485 -0.926443 10.2587
LeftToes  -6.43926e-010 8.38805e-011 -3.16407e-011
220
root  26.5615 38.904 38.575 164.749 -1.29878 -178.778
RightUpLeg  7.18626 8.6956 2.19202
RightLeg  60.6984 2.71775 4.75145
RightFoot  7.04461 -2.47274 15.4947
RightToes  -1.74624e-010 0 -3.6325e-017
Spine  18.1487 1.54182 10.6473
Spine1  -7.21355 3.7175 -14.3875
HEad  8.08585 24.9154 -2.84056
LeftShoulder1  2.95883 -3.87697 -34.0677
LeftArm  -1.65089 9.77894 -23.4135
LeftForeArm  -28.2006 -56.9918 -19.6573
LeftHand  -0.0978131 -3.808 1.4974
RightShoulder  9.5918 10.8174 58.2392
RightArm  7.47571 7.24483 -3.25938
RightForeArm  -14.5068 52.7195 15.9297
RightHand  3.73293 18.743 17.1863
LeftUpLeg  -2.65544 2.66689 -4.57914
LeftLeg  17.7528 5.42128 2.69856
LeftFoot  -3.38595 -0.768551 11.3071
LeftToes  -6.43926e-010 8.38805e-011 -3.16407e-011
221
root  26.315 39.1255 37.156 164.623 -3.40306 -179.438
RightUpLeg  2.5007 9.87714 1.67908
RightLeg  63.0016 1.1446 1.90011
RightFoot  4.70884 -1.6135 11.6375
RightToes  -1.74624e-010 0 -3.6325e-017
Spine  17.0295 2.21758 9.36963
Spine1  -6.67396 4.09085 -13.1287
HEad  8.99262 25.5023 -2.67719
LeftShoulder1  2.99498 -3.94605 -34.1805
LeftArm  -2.02887 8.3867 -24.1551
LeftForeArm  -28.7159 -56.243 -19.1183
LeftHand  -0.0983243 -3.58247 1.52622
RightShoulder  10.0095 11.6437 57.5208
RightArm  7.08511 8.16411 -2.64548
RightForeArm  -15.9054 50.8457 14.9642
RightHand  3.90457 19.0293 17.7681
LeftUpLeg  0.766254 2.56452 -6.05287
LeftLeg  16.0521 4.38157 2.44296
LeftFoot  -5.02825 -0.605583 11.4903
LeftToes  -6.43926e-010 8.38805e-011 -3.16407e-011
222
root  26.0654 39.346 35.7168 164.499 -5.54309 179.985
RightUpLeg  -1.27755 11.584 1.18633
RightLeg  61.884 -0.173725 -0.880618
RightFoot  3.50495 -1.17583 9.19088
RightToes  -1.74624e-010 0 -3.6325e-017
Spine  15.8351 2.91634 8.39956
Spine1  -6.08713 4.62626 -12.0813
HEad  9.75881 25.8603 -2.35609
LeftShoulder1  3.03713 -4.08411 -34.0077
LeftArm  -1.93921 6.83955 -24.9841
LeftForeArm  -29.4556 -55.8262 -18.8527
LeftHand  -0.146329 -3.21487 2.21409
RightShoulder  10.3038 12.2743 56.8935
RightArm  6.79023 9.01574 -2.35478
RightForeArm  -17.0209 49.3059 14.2336
RightHand  4.00084 19.1621 18.1091
LeftUpLeg  4.37689 3.01398 -7.16258
LeftLeg  14.0219 3.30813 2.01299
LeftFoot  -6.21689 -0.484528 11.6238
LeftToes  -6.43926e-010 8.38805e-011 -3.16407e-011
223
root  25.8076 39.5212 34.2664 164.382 -7.69632 179.484
RightUpLeg  -4.2883 13.7348 0.666457
RightLeg  58.1173 -1.60731 -3.24397
RightFoot  1.34792 -0.843925 7.66153
RightToes  -1.74624e-010 0 -3.6325e-017
Spine  14.3843 3.63261 7.56789
Spine1  -4.96749 5.26803 -10.9699
HEad  9.88828 26.3224 -1.9664
LeftShoulder1  3.08572 -4.26604 -33.7006
LeftArm  -2.72657 5.77248 -26.0259
LeftForeArm  -29.4603 -55.6848 -18.7512
LeftHand  -0.0534569 -2.79667 0.975926
RightShoulder  10.5708 12.8694 56.2877
RightArm  6.08673 9.99701 -2.04737
RightForeArm  -18.3503 47.9139 13.6359
RightHand  4.07793 19.2251 18.4126
LeftUpLeg  8.58282 2.88523 -8.34792
LeftLeg  11.0487 2.40921 2.18039
LeftFoot  -7.11183 -0.384144 11.5242
LeftToes  -6.43926e-010 8.38805e-011 -3.16407e-011
